<?xml version="1.0" encoding="UTF-8"?>
<svg xmlns:xhtml="http://www.w3.org/1999/xhtml" xmlns:xlink="http://www.w3.org/1999/xlink" xmlns="http://www.w3.org/2000/svg" id="mermaid-svg-24" width="100%" style="max-width: 100%;" viewBox="70.32882690429688 -91.17117309570312 2849.3423461914062 652.7658081054688" height="100%"><style>#mermaid-svg-24{font-family:"trebuchet ms",verdana,arial,sans-serif;font-size:16px;fill:#333;}@keyframes edge-animation-frame{from{stroke-dashoffset:0;}}@keyframes dash{to{stroke-dashoffset:0;}}#mermaid-svg-24 .edge-animation-slow{stroke-dasharray:9,5!important;stroke-dashoffset:900;animation:dash 50s linear infinite;stroke-linecap:round;}#mermaid-svg-24 .edge-animation-fast{stroke-dasharray:9,5!important;stroke-dashoffset:900;animation:dash 20s linear infinite;stroke-linecap:round;}#mermaid-svg-24 .error-icon{fill:#552222;}#mermaid-svg-24 .error-text{fill:#552222;stroke:#552222;}#mermaid-svg-24 .edge-thickness-normal{stroke-width:1px;}#mermaid-svg-24 .edge-thickness-thick{stroke-width:3.5px;}#mermaid-svg-24 .edge-pattern-solid{stroke-dasharray:0;}#mermaid-svg-24 .edge-thickness-invisible{stroke-width:0;fill:none;}#mermaid-svg-24 .edge-pattern-dashed{stroke-dasharray:3;}#mermaid-svg-24 .edge-pattern-dotted{stroke-dasharray:2;}#mermaid-svg-24 .marker{fill:#333333;stroke:#333333;}#mermaid-svg-24 .marker.cross{stroke:#333333;}#mermaid-svg-24 svg{font-family:"trebuchet ms",verdana,arial,sans-serif;font-size:16px;}#mermaid-svg-24 p{margin:0;}#mermaid-svg-24 .edge{stroke-width:3;}#mermaid-svg-24 .section--1 rect,#mermaid-svg-24 .section--1 path,#mermaid-svg-24 .section--1 circle,#mermaid-svg-24 .section--1 path{fill:hsl(240, 100%, 76.2745098039%);}#mermaid-svg-24 .section--1 text{fill:#ffffff;}#mermaid-svg-24 .node-icon--1{font-size:40px;color:#ffffff;}#mermaid-svg-24 .section-edge--1{stroke:hsl(240, 100%, 76.2745098039%);}#mermaid-svg-24 .edge-depth--1{stroke-width:17;}#mermaid-svg-24 .section--1 line{stroke:hsl(60, 100%, 86.2745098039%);stroke-width:3;}#mermaid-svg-24 .lineWrapper line{stroke:#ffffff;}#mermaid-svg-24 .disabled,#mermaid-svg-24 .disabled circle,#mermaid-svg-24 .disabled text{fill:lightgray;}#mermaid-svg-24 .disabled text{fill:#efefef;}#mermaid-svg-24 .section-0 rect,#mermaid-svg-24 .section-0 path,#mermaid-svg-24 .section-0 circle,#mermaid-svg-24 .section-0 path{fill:hsl(60, 100%, 73.5294117647%);}#mermaid-svg-24 .section-0 text{fill:black;}#mermaid-svg-24 .node-icon-0{font-size:40px;color:black;}#mermaid-svg-24 .section-edge-0{stroke:hsl(60, 100%, 73.5294117647%);}#mermaid-svg-24 .edge-depth-0{stroke-width:14;}#mermaid-svg-24 .section-0 line{stroke:hsl(240, 100%, 83.5294117647%);stroke-width:3;}#mermaid-svg-24 .lineWrapper line{stroke:black;}#mermaid-svg-24 .disabled,#mermaid-svg-24 .disabled circle,#mermaid-svg-24 .disabled text{fill:lightgray;}#mermaid-svg-24 .disabled text{fill:#efefef;}#mermaid-svg-24 .section-1 rect,#mermaid-svg-24 .section-1 path,#mermaid-svg-24 .section-1 circle,#mermaid-svg-24 .section-1 path{fill:hsl(80, 100%, 76.2745098039%);}#mermaid-svg-24 .section-1 text{fill:black;}#mermaid-svg-24 .node-icon-1{font-size:40px;color:black;}#mermaid-svg-24 .section-edge-1{stroke:hsl(80, 100%, 76.2745098039%);}#mermaid-svg-24 .edge-depth-1{stroke-width:11;}#mermaid-svg-24 .section-1 line{stroke:hsl(260, 100%, 86.2745098039%);stroke-width:3;}#mermaid-svg-24 .lineWrapper line{stroke:black;}#mermaid-svg-24 .disabled,#mermaid-svg-24 .disabled circle,#mermaid-svg-24 .disabled text{fill:lightgray;}#mermaid-svg-24 .disabled text{fill:#efefef;}#mermaid-svg-24 .section-2 rect,#mermaid-svg-24 .section-2 path,#mermaid-svg-24 .section-2 circle,#mermaid-svg-24 .section-2 path{fill:hsl(270, 100%, 76.2745098039%);}#mermaid-svg-24 .section-2 text{fill:#ffffff;}#mermaid-svg-24 .node-icon-2{font-size:40px;color:#ffffff;}#mermaid-svg-24 .section-edge-2{stroke:hsl(270, 100%, 76.2745098039%);}#mermaid-svg-24 .edge-depth-2{stroke-width:8;}#mermaid-svg-24 .section-2 line{stroke:hsl(90, 100%, 86.2745098039%);stroke-width:3;}#mermaid-svg-24 .lineWrapper line{stroke:#ffffff;}#mermaid-svg-24 .disabled,#mermaid-svg-24 .disabled circle,#mermaid-svg-24 .disabled text{fill:lightgray;}#mermaid-svg-24 .disabled text{fill:#efefef;}#mermaid-svg-24 .section-3 rect,#mermaid-svg-24 .section-3 path,#mermaid-svg-24 .section-3 circle,#mermaid-svg-24 .section-3 path{fill:hsl(300, 100%, 76.2745098039%);}#mermaid-svg-24 .section-3 text{fill:black;}#mermaid-svg-24 .node-icon-3{font-size:40px;color:black;}#mermaid-svg-24 .section-edge-3{stroke:hsl(300, 100%, 76.2745098039%);}#mermaid-svg-24 .edge-depth-3{stroke-width:5;}#mermaid-svg-24 .section-3 line{stroke:hsl(120, 100%, 86.2745098039%);stroke-width:3;}#mermaid-svg-24 .lineWrapper line{stroke:black;}#mermaid-svg-24 .disabled,#mermaid-svg-24 .disabled circle,#mermaid-svg-24 .disabled text{fill:lightgray;}#mermaid-svg-24 .disabled text{fill:#efefef;}#mermaid-svg-24 .section-4 rect,#mermaid-svg-24 .section-4 path,#mermaid-svg-24 .section-4 circle,#mermaid-svg-24 .section-4 path{fill:hsl(330, 100%, 76.2745098039%);}#mermaid-svg-24 .section-4 text{fill:black;}#mermaid-svg-24 .node-icon-4{font-size:40px;color:black;}#mermaid-svg-24 .section-edge-4{stroke:hsl(330, 100%, 76.2745098039%);}#mermaid-svg-24 .edge-depth-4{stroke-width:2;}#mermaid-svg-24 .section-4 line{stroke:hsl(150, 100%, 86.2745098039%);stroke-width:3;}#mermaid-svg-24 .lineWrapper line{stroke:black;}#mermaid-svg-24 .disabled,#mermaid-svg-24 .disabled circle,#mermaid-svg-24 .disabled text{fill:lightgray;}#mermaid-svg-24 .disabled text{fill:#efefef;}#mermaid-svg-24 .section-5 rect,#mermaid-svg-24 .section-5 path,#mermaid-svg-24 .section-5 circle,#mermaid-svg-24 .section-5 path{fill:hsl(0, 100%, 76.2745098039%);}#mermaid-svg-24 .section-5 text{fill:black;}#mermaid-svg-24 .node-icon-5{font-size:40px;color:black;}#mermaid-svg-24 .section-edge-5{stroke:hsl(0, 100%, 76.2745098039%);}#mermaid-svg-24 .edge-depth-5{stroke-width:-1;}#mermaid-svg-24 .section-5 line{stroke:hsl(180, 100%, 86.2745098039%);stroke-width:3;}#mermaid-svg-24 .lineWrapper line{stroke:black;}#mermaid-svg-24 .disabled,#mermaid-svg-24 .disabled circle,#mermaid-svg-24 .disabled text{fill:lightgray;}#mermaid-svg-24 .disabled text{fill:#efefef;}#mermaid-svg-24 .section-6 rect,#mermaid-svg-24 .section-6 path,#mermaid-svg-24 .section-6 circle,#mermaid-svg-24 .section-6 path{fill:hsl(30, 100%, 76.2745098039%);}#mermaid-svg-24 .section-6 text{fill:black;}#mermaid-svg-24 .node-icon-6{font-size:40px;color:black;}#mermaid-svg-24 .section-edge-6{stroke:hsl(30, 100%, 76.2745098039%);}#mermaid-svg-24 .edge-depth-6{stroke-width:-4;}#mermaid-svg-24 .section-6 line{stroke:hsl(210, 100%, 86.2745098039%);stroke-width:3;}#mermaid-svg-24 .lineWrapper line{stroke:black;}#mermaid-svg-24 .disabled,#mermaid-svg-24 .disabled circle,#mermaid-svg-24 .disabled text{fill:lightgray;}#mermaid-svg-24 .disabled text{fill:#efefef;}#mermaid-svg-24 .section-7 rect,#mermaid-svg-24 .section-7 path,#mermaid-svg-24 .section-7 circle,#mermaid-svg-24 .section-7 path{fill:hsl(90, 100%, 76.2745098039%);}#mermaid-svg-24 .section-7 text{fill:black;}#mermaid-svg-24 .node-icon-7{font-size:40px;color:black;}#mermaid-svg-24 .section-edge-7{stroke:hsl(90, 100%, 76.2745098039%);}#mermaid-svg-24 .edge-depth-7{stroke-width:-7;}#mermaid-svg-24 .section-7 line{stroke:hsl(270, 100%, 86.2745098039%);stroke-width:3;}#mermaid-svg-24 .lineWrapper line{stroke:black;}#mermaid-svg-24 .disabled,#mermaid-svg-24 .disabled circle,#mermaid-svg-24 .disabled text{fill:lightgray;}#mermaid-svg-24 .disabled text{fill:#efefef;}#mermaid-svg-24 .section-8 rect,#mermaid-svg-24 .section-8 path,#mermaid-svg-24 .section-8 circle,#mermaid-svg-24 .section-8 path{fill:hsl(150, 100%, 76.2745098039%);}#mermaid-svg-24 .section-8 text{fill:black;}#mermaid-svg-24 .node-icon-8{font-size:40px;color:black;}#mermaid-svg-24 .section-edge-8{stroke:hsl(150, 100%, 76.2745098039%);}#mermaid-svg-24 .edge-depth-8{stroke-width:-10;}#mermaid-svg-24 .section-8 line{stroke:hsl(330, 100%, 86.2745098039%);stroke-width:3;}#mermaid-svg-24 .lineWrapper line{stroke:black;}#mermaid-svg-24 .disabled,#mermaid-svg-24 .disabled circle,#mermaid-svg-24 .disabled text{fill:lightgray;}#mermaid-svg-24 .disabled text{fill:#efefef;}#mermaid-svg-24 .section-9 rect,#mermaid-svg-24 .section-9 path,#mermaid-svg-24 .section-9 circle,#mermaid-svg-24 .section-9 path{fill:hsl(180, 100%, 76.2745098039%);}#mermaid-svg-24 .section-9 text{fill:black;}#mermaid-svg-24 .node-icon-9{font-size:40px;color:black;}#mermaid-svg-24 .section-edge-9{stroke:hsl(180, 100%, 76.2745098039%);}#mermaid-svg-24 .edge-depth-9{stroke-width:-13;}#mermaid-svg-24 .section-9 line{stroke:hsl(0, 100%, 86.2745098039%);stroke-width:3;}#mermaid-svg-24 .lineWrapper line{stroke:black;}#mermaid-svg-24 .disabled,#mermaid-svg-24 .disabled circle,#mermaid-svg-24 .disabled text{fill:lightgray;}#mermaid-svg-24 .disabled text{fill:#efefef;}#mermaid-svg-24 .section-10 rect,#mermaid-svg-24 .section-10 path,#mermaid-svg-24 .section-10 circle,#mermaid-svg-24 .section-10 path{fill:hsl(210, 100%, 76.2745098039%);}#mermaid-svg-24 .section-10 text{fill:black;}#mermaid-svg-24 .node-icon-10{font-size:40px;color:black;}#mermaid-svg-24 .section-edge-10{stroke:hsl(210, 100%, 76.2745098039%);}#mermaid-svg-24 .edge-depth-10{stroke-width:-16;}#mermaid-svg-24 .section-10 line{stroke:hsl(30, 100%, 86.2745098039%);stroke-width:3;}#mermaid-svg-24 .lineWrapper line{stroke:black;}#mermaid-svg-24 .disabled,#mermaid-svg-24 .disabled circle,#mermaid-svg-24 .disabled text{fill:lightgray;}#mermaid-svg-24 .disabled text{fill:#efefef;}#mermaid-svg-24 .section-root rect,#mermaid-svg-24 .section-root path,#mermaid-svg-24 .section-root circle{fill:hsl(240, 100%, 46.2745098039%);}#mermaid-svg-24 .section-root text{fill:#ffffff;}#mermaid-svg-24 .icon-container{height:100%;display:flex;justify-content:center;align-items:center;}#mermaid-svg-24 .edge{fill:none;}#mermaid-svg-24 .eventWrapper{filter:brightness(120%);}#mermaid-svg-24 :root{--mermaid-font-family:"trebuchet ms",verdana,arial,sans-serif;}</style><g/><g/><defs><marker id="arrowhead" refX="5" refY="2" markerWidth="6" markerHeight="4" orient="auto"><path d="M 0,0 V 4 L6,2 Z"/></marker></defs><g transform="translate(200, 50)"><g class="timeline-node section--1"><g><path id="node-undefined" class="node-bkg node-undefined" d="M0 62.3078125 v-57.3078125 q0,-5 5,-5 h580 q5,0 5,5 v62.3078125 H0 Z"/><line class="node-line--1" x1="0" y1="67.3078125" x2="590" y2="67.3078125"/></g><g transform="translate(295, 10)"><text dy="1em" alignment-baseline="middle" dominant-baseline="middle" text-anchor="middle"><tspan x="0" dy="1em">V1.0   (MVP)</tspan></text></g></g></g><g class="taskWrapper" transform="translate(200, 167.3078125)"><g class="timeline-node section--1"><g><path id="node-undefined" class="node-bkg node-undefined" d="M0 62.3078125 v-57.3078125 q0,-5 5,-5 h180 q5,0 5,5 v62.3078125 H0 Z"/><line class="node-line--1" x1="0" y1="67.3078125" x2="190" y2="67.3078125"/></g><g transform="translate(95, 10)"><text dy="1em" alignment-baseline="middle" dominant-baseline="middle" text-anchor="middle"><tspan x="0" dy="1em">核心引擎</tspan></text></g></g></g><g class="lineWrapper"><line x1="295" y1="234.61562500000002" x2="295" y2="481.92343750000003" stroke-width="2" stroke="black" marker-end="url(#arrowhead)" stroke-dasharray="5,5"/></g><g class="eventWrapper" transform="translate(200, 367.3078125)"><g class="timeline-node section--1"><g><path id="node-undefined" class="node-bkg node-undefined" d="M0 45 v-40 q0,-5 5,-5 h180 q5,0 5,5 v45 H0 Z"/><line class="node-line--1" x1="0" y1="50" x2="190" y2="50"/></g><g transform="translate(95, 10)"><text dy="1em" alignment-baseline="middle" dominant-baseline="middle" text-anchor="middle"><tspan x="0" dy="1em">嵌入式规则引擎</tspan></text></g></g></g><g class="taskWrapper" transform="translate(400, 167.3078125)"><g class="timeline-node section--1"><g><path id="node-undefined" class="node-bkg node-undefined" d="M0 62.3078125 v-57.3078125 q0,-5 5,-5 h180 q5,0 5,5 v62.3078125 H0 Z"/><line class="node-line--1" x1="0" y1="67.3078125" x2="190" y2="67.3078125"/></g><g transform="translate(95, 10)"><text dy="1em" alignment-baseline="middle" dominant-baseline="middle" text-anchor="middle"><tspan x="0" dy="1em">基础模型</tspan></text></g></g></g><g class="lineWrapper"><line x1="495" y1="234.61562500000002" x2="495" y2="481.92343750000003" stroke-width="2" stroke="black" marker-end="url(#arrowhead)" stroke-dasharray="5,5"/></g><g class="eventWrapper" transform="translate(400, 367.3078125)"><g class="timeline-node section--1"><g><path id="node-undefined" class="node-bkg node-undefined" d="M0 45 v-40 q0,-5 5,-5 h180 q5,0 5,5 v45 H0 Z"/><line class="node-line--1" x1="0" y1="50" x2="190" y2="50"/></g><g transform="translate(95, 10)"><text dy="1em" alignment-baseline="middle" dominant-baseline="middle" text-anchor="middle"><tspan x="0" dy="1em"/><tspan x="0" dy="1.1em">Context+Rule+Action+Decision</tspan></text></g></g></g><g class="taskWrapper" transform="translate(600, 167.3078125)"><g class="timeline-node section--1"><g><path id="node-undefined" class="node-bkg node-undefined" d="M0 62.3078125 v-57.3078125 q0,-5 5,-5 h180 q5,0 5,5 v62.3078125 H0 Z"/><line class="node-line--1" x1="0" y1="67.3078125" x2="190" y2="67.3078125"/></g><g transform="translate(95, 10)"><text dy="1em" alignment-baseline="middle" dominant-baseline="middle" text-anchor="middle"><tspan x="0" dy="1em">执行策略</tspan></text></g></g></g><g class="lineWrapper"><line x1="695" y1="234.61562500000002" x2="695" y2="481.92343750000003" stroke-width="2" stroke="black" marker-end="url(#arrowhead)" stroke-dasharray="5,5"/></g><g class="eventWrapper" transform="translate(600, 367.3078125)"><g class="timeline-node section--1"><g><path id="node-undefined" class="node-bkg node-undefined" d="M0 45 v-40 q0,-5 5,-5 h180 q5,0 5,5 v45 H0 Z"/><line class="node-line--1" x1="0" y1="50" x2="190" y2="50"/></g><g transform="translate(95, 10)"><text dy="1em" alignment-baseline="middle" dominant-baseline="middle" text-anchor="middle"><tspan x="0" dy="1em">Fire-First/Fire-All</tspan></text></g></g></g><g transform="translate(800, 50)"><g class="timeline-node section-0"><g><path id="node-undefined" class="node-bkg node-undefined" d="M0 62.3078125 v-57.3078125 q0,-5 5,-5 h580 q5,0 5,5 v62.3078125 H0 Z"/><line class="node-line-0" x1="0" y1="67.3078125" x2="590" y2="67.3078125"/></g><g transform="translate(295, 10)"><text dy="1em" alignment-baseline="middle" dominant-baseline="middle" text-anchor="middle"><tspan x="0" dy="1em">V2.0   (增强版)</tspan></text></g></g></g><g class="taskWrapper" transform="translate(800, 167.3078125)"><g class="timeline-node section-0"><g><path id="node-undefined" class="node-bkg node-undefined" d="M0 62.3078125 v-57.3078125 q0,-5 5,-5 h180 q5,0 5,5 v62.3078125 H0 Z"/><line class="node-line-0" x1="0" y1="67.3078125" x2="190" y2="67.3078125"/></g><g transform="translate(95, 10)"><text dy="1em" alignment-baseline="middle" dominant-baseline="middle" text-anchor="middle"><tspan x="0" dy="1em">动态管理</tspan></text></g></g></g><g class="lineWrapper"><line x1="895" y1="234.61562500000002" x2="895" y2="481.92343750000003" stroke-width="2" stroke="black" marker-end="url(#arrowhead)" stroke-dasharray="5,5"/></g><g class="eventWrapper" transform="translate(800, 367.3078125)"><g class="timeline-node section-0"><g><path id="node-undefined" class="node-bkg node-undefined" d="M0 45 v-40 q0,-5 5,-5 h180 q5,0 5,5 v45 H0 Z"/><line class="node-line-0" x1="0" y1="50" x2="190" y2="50"/></g><g transform="translate(95, 10)"><text dy="1em" alignment-baseline="middle" dominant-baseline="middle" text-anchor="middle"><tspan x="0" dy="1em"/><tspan x="0" dy="1.1em">规则热更新/版本管理</tspan></text></g></g></g><g class="taskWrapper" transform="translate(1000, 167.3078125)"><g class="timeline-node section-0"><g><path id="node-undefined" class="node-bkg node-undefined" d="M0 62.3078125 v-57.3078125 q0,-5 5,-5 h180 q5,0 5,5 v62.3078125 H0 Z"/><line class="node-line-0" x1="0" y1="67.3078125" x2="190" y2="67.3078125"/></g><g transform="translate(95, 10)"><text dy="1em" alignment-baseline="middle" dominant-baseline="middle" text-anchor="middle"><tspan x="0" dy="1em">表达式增强</tspan></text></g></g></g><g class="lineWrapper"><line x1="1095" y1="234.61562500000002" x2="1095" y2="481.92343750000003" stroke-width="2" stroke="black" marker-end="url(#arrowhead)" stroke-dasharray="5,5"/></g><g class="eventWrapper" transform="translate(1000, 367.3078125)"><g class="timeline-node section-0"><g><path id="node-undefined" class="node-bkg node-undefined" d="M0 45 v-40 q0,-5 5,-5 h180 q5,0 5,5 v45 H0 Z"/><line class="node-line-0" x1="0" y1="50" x2="190" y2="50"/></g><g transform="translate(95, 10)"><text dy="1em" alignment-baseline="middle" dominant-baseline="middle" text-anchor="middle"><tspan x="0" dy="1em"/><tspan x="0" dy="1.1em">自定义函数/脚本支持</tspan></text></g></g></g><g class="taskWrapper" transform="translate(1200, 167.3078125)"><g class="timeline-node section-0"><g><path id="node-undefined" class="node-bkg node-undefined" d="M0 62.3078125 v-57.3078125 q0,-5 5,-5 h180 q5,0 5,5 v62.3078125 H0 Z"/><line class="node-line-0" x1="0" y1="67.3078125" x2="190" y2="67.3078125"/></g><g transform="translate(95, 10)"><text dy="1em" alignment-baseline="middle" dominant-baseline="middle" text-anchor="middle"><tspan x="0" dy="1em">监控基础</tspan></text></g></g></g><g class="lineWrapper"><line x1="1295" y1="234.61562500000002" x2="1295" y2="481.92343750000003" stroke-width="2" stroke="black" marker-end="url(#arrowhead)" stroke-dasharray="5,5"/></g><g class="eventWrapper" transform="translate(1200, 367.3078125)"><g class="timeline-node section-0"><g><path id="node-undefined" class="node-bkg node-undefined" d="M0 45 v-40 q0,-5 5,-5 h180 q5,0 5,5 v45 H0 Z"/><line class="node-line-0" x1="0" y1="50" x2="190" y2="50"/></g><g transform="translate(95, 10)"><text dy="1em" alignment-baseline="middle" dominant-baseline="middle" text-anchor="middle"><tspan x="0" dy="1em">指标收集/链路追踪</tspan></text></g></g></g><g transform="translate(1400, 50)"><g class="timeline-node section-1"><g><path id="node-undefined" class="node-bkg node-undefined" d="M0 62.3078125 v-57.3078125 q0,-5 5,-5 h580 q5,0 5,5 v62.3078125 H0 Z"/><line class="node-line-1" x1="0" y1="67.3078125" x2="590" y2="67.3078125"/></g><g transform="translate(295, 10)"><text dy="1em" alignment-baseline="middle" dominant-baseline="middle" text-anchor="middle"><tspan x="0" dy="1em">V3.0   (企业版)</tspan></text></g></g></g><g class="taskWrapper" transform="translate(1400, 167.3078125)"><g class="timeline-node section-1"><g><path id="node-undefined" class="node-bkg node-undefined" d="M0 62.3078125 v-57.3078125 q0,-5 5,-5 h180 q5,0 5,5 v62.3078125 H0 Z"/><line class="node-line-1" x1="0" y1="67.3078125" x2="190" y2="67.3078125"/></g><g transform="translate(95, 10)"><text dy="1em" alignment-baseline="middle" dominant-baseline="middle" text-anchor="middle"><tspan x="0" dy="1em">规则链</tspan></text></g></g></g><g class="lineWrapper"><line x1="1495" y1="234.61562500000002" x2="1495" y2="481.92343750000003" stroke-width="2" stroke="black" marker-end="url(#arrowhead)" stroke-dasharray="5,5"/></g><g class="eventWrapper" transform="translate(1400, 367.3078125)"><g class="timeline-node section-1"><g><path id="node-undefined" class="node-bkg node-undefined" d="M0 45 v-40 q0,-5 5,-5 h180 q5,0 5,5 v45 H0 Z"/><line class="node-line-1" x1="0" y1="50" x2="190" y2="50"/></g><g transform="translate(95, 10)"><text dy="1em" alignment-baseline="middle" dominant-baseline="middle" text-anchor="middle"><tspan x="0" dy="1em">复杂流程编排</tspan></text></g></g></g><g class="taskWrapper" transform="translate(1600, 167.3078125)"><g class="timeline-node section-1"><g><path id="node-undefined" class="node-bkg node-undefined" d="M0 62.3078125 v-57.3078125 q0,-5 5,-5 h180 q5,0 5,5 v62.3078125 H0 Z"/><line class="node-line-1" x1="0" y1="67.3078125" x2="190" y2="67.3078125"/></g><g transform="translate(95, 10)"><text dy="1em" alignment-baseline="middle" dominant-baseline="middle" text-anchor="middle"><tspan x="0" dy="1em">完整监控</tspan></text></g></g></g><g class="lineWrapper"><line x1="1695" y1="234.61562500000002" x2="1695" y2="481.92343750000003" stroke-width="2" stroke="black" marker-end="url(#arrowhead)" stroke-dasharray="5,5"/></g><g class="eventWrapper" transform="translate(1600, 367.3078125)"><g class="timeline-node section-1"><g><path id="node-undefined" class="node-bkg node-undefined" d="M0 45 v-40 q0,-5 5,-5 h180 q5,0 5,5 v45 H0 Z"/><line class="node-line-1" x1="0" y1="50" x2="190" y2="50"/></g><g transform="translate(95, 10)"><text dy="1em" alignment-baseline="middle" dominant-baseline="middle" text-anchor="middle"><tspan x="0" dy="1em">仪表盘/告警/分析</tspan></text></g></g></g><g class="taskWrapper" transform="translate(1800, 167.3078125)"><g class="timeline-node section-1"><g><path id="node-undefined" class="node-bkg node-undefined" d="M0 62.3078125 v-57.3078125 q0,-5 5,-5 h180 q5,0 5,5 v62.3078125 H0 Z"/><line class="node-line-1" x1="0" y1="67.3078125" x2="190" y2="67.3078125"/></g><g transform="translate(95, 10)"><text dy="1em" alignment-baseline="middle" dominant-baseline="middle" text-anchor="middle"><tspan x="0" dy="1em">团队协作</tspan></text></g></g></g><g class="lineWrapper"><line x1="1895" y1="234.61562500000002" x2="1895" y2="481.92343750000003" stroke-width="2" stroke="black" marker-end="url(#arrowhead)" stroke-dasharray="5,5"/></g><g class="eventWrapper" transform="translate(1800, 367.3078125)"><g class="timeline-node section-1"><g><path id="node-undefined" class="node-bkg node-undefined" d="M0 45 v-40 q0,-5 5,-5 h180 q5,0 5,5 v45 H0 Z"/><line class="node-line-1" x1="0" y1="50" x2="190" y2="50"/></g><g transform="translate(95, 10)"><text dy="1em" alignment-baseline="middle" dominant-baseline="middle" text-anchor="middle"><tspan x="0" dy="1em">规则库/权限管理</tspan></text></g></g></g><g transform="translate(2000, 50)"><g class="timeline-node section-2"><g><path id="node-undefined" class="node-bkg node-undefined" d="M0 62.3078125 v-57.3078125 q0,-5 5,-5 h580 q5,0 5,5 v62.3078125 H0 Z"/><line class="node-line-2" x1="0" y1="67.3078125" x2="590" y2="67.3078125"/></g><g transform="translate(295, 10)"><text dy="1em" alignment-baseline="middle" dominant-baseline="middle" text-anchor="middle"><tspan x="0" dy="1em">V4.0+   (未来)</tspan></text></g></g></g><g class="taskWrapper" transform="translate(2000, 167.3078125)"><g class="timeline-node section-2"><g><path id="node-undefined" class="node-bkg node-undefined" d="M0 62.3078125 v-57.3078125 q0,-5 5,-5 h180 q5,0 5,5 v62.3078125 H0 Z"/><line class="node-line-2" x1="0" y1="67.3078125" x2="190" y2="67.3078125"/></g><g transform="translate(95, 10)"><text dy="1em" alignment-baseline="middle" dominant-baseline="middle" text-anchor="middle"><tspan x="0" dy="1em">智能引擎</tspan></text></g></g></g><g class="lineWrapper"><line x1="2095" y1="234.61562500000002" x2="2095" y2="481.92343750000003" stroke-width="2" stroke="black" marker-end="url(#arrowhead)" stroke-dasharray="5,5"/></g><g class="eventWrapper" transform="translate(2000, 367.3078125)"><g class="timeline-node section-2"><g><path id="node-undefined" class="node-bkg node-undefined" d="M0 45 v-40 q0,-5 5,-5 h180 q5,0 5,5 v45 H0 Z"/><line class="node-line-2" x1="0" y1="50" x2="190" y2="50"/></g><g transform="translate(95, 10)"><text dy="1em" alignment-baseline="middle" dominant-baseline="middle" text-anchor="middle"><tspan x="0" dy="1em">规则推荐/自动优化</tspan></text></g></g></g><g class="taskWrapper" transform="translate(2200, 167.3078125)"><g class="timeline-node section-2"><g><path id="node-undefined" class="node-bkg node-undefined" d="M0 62.3078125 v-57.3078125 q0,-5 5,-5 h180 q5,0 5,5 v62.3078125 H0 Z"/><line class="node-line-2" x1="0" y1="67.3078125" x2="190" y2="67.3078125"/></g><g transform="translate(95, 10)"><text dy="1em" alignment-baseline="middle" dominant-baseline="middle" text-anchor="middle"><tspan x="0" dy="1em">云原生</tspan></text></g></g></g><g class="lineWrapper"><line x1="2295" y1="234.61562500000002" x2="2295" y2="481.92343750000003" stroke-width="2" stroke="black" marker-end="url(#arrowhead)" stroke-dasharray="5,5"/></g><g class="eventWrapper" transform="translate(2200, 367.3078125)"><g class="timeline-node section-2"><g><path id="node-undefined" class="node-bkg node-undefined" d="M0 45 v-40 q0,-5 5,-5 h180 q5,0 5,5 v45 H0 Z"/><line class="node-line-2" x1="0" y1="50" x2="190" y2="50"/></g><g transform="translate(95, 10)"><text dy="1em" alignment-baseline="middle" dominant-baseline="middle" text-anchor="middle"><tspan x="0" dy="1em">分布式/Serverless</tspan></text></g></g></g><g class="taskWrapper" transform="translate(2400, 167.3078125)"><g class="timeline-node section-2"><g><path id="node-undefined" class="node-bkg node-undefined" d="M0 62.3078125 v-57.3078125 q0,-5 5,-5 h180 q5,0 5,5 v62.3078125 H0 Z"/><line class="node-line-2" x1="0" y1="67.3078125" x2="190" y2="67.3078125"/></g><g transform="translate(95, 10)"><text dy="1em" alignment-baseline="middle" dominant-baseline="middle" text-anchor="middle"><tspan x="0" dy="1em">生态集成</tspan></text></g></g></g><g class="lineWrapper"><line x1="2495" y1="234.61562500000002" x2="2495" y2="481.92343750000003" stroke-width="2" stroke="black" marker-end="url(#arrowhead)" stroke-dasharray="5,5"/></g><g class="eventWrapper" transform="translate(2400, 367.3078125)"><g class="timeline-node section-2"><g><path id="node-undefined" class="node-bkg node-undefined" d="M0 45 v-40 q0,-5 5,-5 h180 q5,0 5,5 v45 H0 Z"/><line class="node-line-2" x1="0" y1="50" x2="190" y2="50"/></g><g transform="translate(95, 10)"><text dy="1em" alignment-baseline="middle" dominant-baseline="middle" text-anchor="middle"><tspan x="0" dy="1em"/><tspan x="0" dy="1.1em">与AI/大数据平台集成</tspan></text></g></g></g><text x="1045" font-size="4ex" font-weight="bold" y="20">Nebula-Engine 演进路线图</text><g class="lineWrapper"><line x1="150" y1="284.615625" x2="2840" y2="284.615625" stroke-width="4" stroke="black" marker-end="url(#arrowhead)"/></g></svg>